<svg width="150" height="178" viewBox="0 0 150 178" fill="none" xmlns="http://www.w3.org/2000/svg">
<path fill-rule="evenodd" clip-rule="evenodd" d="M38.607 153.035C45.0893 143.276 60.2912 139.547 67.2897 151.295C69.149 154.378 69.8849 158.1 69.3549 161.738C68.9881 164.662 67.6728 167.35 65.6443 169.321C63.6158 171.291 61.0066 172.415 58.2834 172.491C56.8049 172.572 55.3323 172.236 54.0098 171.515C52.6873 170.794 51.5603 169.713 50.7392 168.379C49.918 167.044 49.4308 165.501 49.3253 163.901C49.2198 162.301 49.4997 160.699 50.1375 159.251C50.5643 158.536 51.1391 157.939 51.8164 157.508C52.4936 157.076 53.2544 156.822 54.0383 156.765C58.9144 156.765 56.333 161.489 57.5376 163.975C58.7423 166.462 60.7501 163.975 61.6679 162.235C62.4317 160.377 62.4931 158.27 61.8389 156.364C61.1847 154.458 59.867 152.906 58.1686 152.041C56.3347 151.285 54.3485 151.071 52.4132 151.421C50.4779 151.77 48.663 152.671 47.1545 154.03C45.6935 155.639 44.6327 157.624 44.071 159.798C43.5092 161.971 43.4648 164.264 43.942 166.462C44.8988 169.821 46.8372 172.754 49.4651 174.816C52.093 176.879 55.2683 177.961 58.5128 177.899C67.0029 177.899 72.2806 169.943 75.7225 162.421H79.9102C90.3534 162.439 100.681 160.048 110.205 155.407C119.73 150.766 128.234 143.983 135.153 135.506C135.364 135.16 135.594 134.828 135.842 134.512C137.646 134.672 139.46 134.367 141.135 133.621C142.811 132.876 144.299 131.711 145.479 130.223C146.469 128.683 146.921 126.811 146.753 124.943C146.585 123.075 145.808 121.332 144.561 120.029C143.688 119.137 142.604 118.526 141.429 118.262C140.254 117.999 139.035 118.094 137.907 118.537C137.012 118.954 136.251 119.649 135.72 120.534C135.19 121.419 134.912 122.454 134.924 123.51C134.94 124.438 135.243 125.334 135.783 126.055C136.324 126.776 137.071 127.28 137.907 127.488C139.513 127.488 140.431 126.493 141.578 125.748C141.702 126.503 141.558 127.281 141.175 127.926C140.792 128.572 140.198 129.037 139.513 129.228C138.862 129.536 138.158 129.695 137.448 129.695C136.737 129.695 136.034 129.536 135.383 129.228C134.537 128.69 133.814 127.951 133.27 127.066C132.726 126.181 132.375 125.174 132.242 124.121C132.11 123.067 132.2 121.995 132.505 120.985C132.811 119.975 133.324 119.053 134.006 118.288C135.509 116.733 137.425 115.728 139.484 115.416C141.542 115.104 143.639 115.5 145.479 116.548C145.521 116.095 145.68 115.664 145.938 115.305C146.789 113.108 147.479 110.843 148.003 108.53C149.669 101.676 150.037 94.5269 149.083 87.5149C148.129 80.5029 145.874 73.773 142.454 67.7314C139.033 61.6899 134.519 56.462 129.182 52.3634C123.845 48.2647 117.798 45.3803 111.404 43.8842C147.774 67.3803 127.294 107.535 105.667 108.53C105.272 107.208 104.619 105.994 103.753 104.97C102.887 103.945 101.828 103.134 100.647 102.592C99.4671 102.05 98.1929 101.789 96.9113 101.826C95.6296 101.864 94.3704 102.2 93.219 102.811C92.0506 103.545 91.1303 104.665 90.5933 106.008C90.0564 107.351 89.9311 108.844 90.236 110.27C90.236 110.767 90.6949 112.259 91.6127 112.01C91.039 110.497 91.039 108.8 91.6127 107.286C92.294 105.824 93.4492 104.686 94.8571 104.089C96.265 103.493 97.8265 103.48 99.2423 104.054C100.544 104.702 101.634 105.761 102.371 107.092C103.108 108.423 103.457 109.964 103.373 111.513C103.192 113.064 102.657 114.542 101.815 115.812C100.974 117.082 99.8526 118.104 98.554 118.786C96.9631 119.36 95.2791 119.568 93.6097 119.397C91.9403 119.226 90.3223 118.679 88.8592 117.791C88.1708 117.791 87.4824 117.791 86.794 118.288C77.5429 119.39 68.1957 117.554 59.8896 113.005C18.9306 86.836 31.2068 22.1907 69.9859 0C10.7847 33.4415 12.6204 123.51 85.1304 142.22C80.7856 144.158 76.2075 145.414 71.5348 145.949C71.2294 145.938 70.9264 146.012 70.6551 146.164C70.3838 146.317 70.1533 146.542 69.9859 146.819C73.1984 154.092 74.8046 163.789 68.6092 170.067C70.5016 166.396 71.5264 162.274 71.5922 158.07C71.3161 155.625 70.5956 153.263 69.4723 151.121C68.349 148.979 66.8451 147.1 65.0476 145.591C63.25 144.083 61.1944 142.975 58.9996 142.332C56.8047 141.69 54.5141 141.525 52.26 141.847C49.7359 142.344 49.0475 142.344 48.5886 141.847C25.6424 131.839 7.40015 104.551 0 80.4958V81.2417C2.35199 123.634 30.4037 149.617 38.6644 152.6L38.607 153.035Z" fill="#00FFCA"/>
</svg>
