<svg width="22" height="32" viewBox="0 0 22 32" fill="none" xmlns="http://www.w3.org/2000/svg">
<path d="M12.6099 16.0591L20.1982 8.47085C21.118 7.55106 21.5779 6.40132 21.5779 5.02163C21.5779 3.64194 21.118 2.4922 20.1982 1.57241C18.3586 -0.267178 15.1393 -0.267178 13.2998 1.57241L2.26227 12.6099C0.422688 14.4495 0.422688 17.6688 2.26227 19.5084L13.2998 30.5459C14.2195 31.4657 15.5992 31.9255 16.749 31.9255C17.8987 31.9255 19.2784 31.4657 20.1982 30.5459C21.118 29.6261 21.5779 28.4763 21.5779 27.0967C21.5779 25.717 21.118 24.5672 20.1982 23.6474L12.6099 16.0591Z" fill="#D2EFFA"/>
</svg>
