<svg width="26" height="29" viewBox="0 0 26 29" fill="none" xmlns="http://www.w3.org/2000/svg">
<path d="M25.6751 24.5986L24.0655 11.2617C23.8355 9.65203 22.4559 8.50226 20.8462 8.50226H19.0067V6.8926C19.0067 3.44337 16.2473 0.914001 13.028 0.914001C9.80873 0.914001 7.04934 3.67332 7.04934 6.8926V8.50226H5.20979C3.60015 8.50226 2.2204 9.65203 1.99046 11.2617L0.380862 24.5986C0.150914 26.4382 1.76054 28.0478 3.60012 28.0478H22.6858C24.2954 28.2778 25.9051 26.4382 25.6751 24.5986ZM9.57878 6.8926C9.57878 5.05301 11.1884 3.44337 13.028 3.44337C14.8676 3.44337 16.4772 5.05301 16.4772 6.8926V8.50226H9.80875V6.8926H9.57878Z" fill="#D2EFFA"/>
</svg>
