<svg width="37" height="37" viewBox="0 0 37 37" fill="none" xmlns="http://www.w3.org/2000/svg">
<path d="M30.0359 0.739014H7.48049C3.76002 0.739014 0.737152 3.76192 0.737152 7.48239V30.0377C0.737152 33.7582 3.76002 36.7811 7.48049 36.7811H30.0359C33.7563 36.7811 36.7792 33.7582 36.7792 30.0377V7.48239C36.5467 3.76192 33.7563 0.739014 30.0359 0.739014ZM12.3636 29.5726C12.3636 31.2004 10.9684 32.5956 9.34073 32.5956H7.48049C5.85278 32.5956 4.45764 31.2004 4.45764 29.5726V27.7124C4.45764 26.0847 5.85278 24.6896 7.48049 24.6896H9.34073C10.9684 24.6896 12.3636 26.0847 12.3636 27.7124V29.5726ZM12.3636 19.5739C12.3636 21.2016 10.9684 22.5968 9.34073 22.5968H7.48049C5.85278 22.5968 4.45764 21.2016 4.45764 19.5739V17.7137C4.45764 16.086 5.85278 14.6908 7.48049 14.6908H9.34073C10.9684 14.6908 12.3636 16.086 12.3636 17.7137V19.5739ZM22.5949 29.5726C22.5949 31.2004 21.1998 32.5956 19.572 32.5956H17.7118C16.0841 32.5956 14.6889 31.2004 14.6889 29.5726V27.7124C14.6889 26.0847 16.0841 24.6896 17.7118 24.6896H19.572C21.1998 24.6896 22.5949 26.0847 22.5949 27.7124V29.5726ZM22.5949 19.5739C22.5949 21.2016 21.1998 22.5968 19.572 22.5968H17.7118C16.0841 22.5968 14.6889 21.2016 14.6889 19.5739V17.7137C14.6889 16.086 16.0841 14.6908 17.7118 14.6908H19.572C21.1998 14.6908 22.5949 16.086 22.5949 17.7137V19.5739ZM32.5937 29.5726C32.5937 31.2004 31.1985 32.5956 29.5708 32.5956H27.7106C26.0829 32.5956 24.6877 31.2004 24.6877 29.5726V27.7124C24.6877 26.0847 26.0829 24.6896 27.7106 24.6896H29.5708C31.1985 24.6896 32.5937 26.0847 32.5937 27.7124V29.5726ZM32.5937 19.5739C32.5937 21.2016 31.1985 22.5968 29.5708 22.5968H27.7106C26.0829 22.5968 24.6877 21.2016 24.6877 19.5739V17.7137C24.6877 16.086 26.0829 14.6908 27.7106 14.6908H29.5708C31.1985 14.6908 32.5937 16.086 32.5937 17.7137V19.5739Z" fill="white"/>
</svg>
