<svg width="40" height="31" viewBox="0 0 40 31" fill="none" xmlns="http://www.w3.org/2000/svg">
<path d="M27.5572 0.29686H12.6753C6.16447 0.29686 0.816284 5.64505 0.816284 12.1559V15.6438C0.816284 22.1546 6.16447 27.5028 12.6753 27.5028H27.0921L30.8126 30.5257C31.9752 31.4558 33.6029 30.5257 33.3704 29.1305L33.1379 26.1076C36.8584 24.0149 39.1836 20.2944 39.1836 15.8764V12.3884C39.1836 5.64503 34.068 0.29686 27.5572 0.29686ZM10.8151 16.3414C9.18735 16.3414 7.79217 14.9462 7.79217 13.3185C7.79217 11.6908 9.18735 10.2956 10.8151 10.2956C12.4428 10.2956 13.8379 11.6908 13.8379 13.3185C13.8379 14.9462 12.4428 16.3414 10.8151 16.3414ZM20.3488 16.3414C18.7211 16.3414 17.3259 14.9462 17.3259 13.3185C17.3259 11.6908 18.7211 10.2956 20.3488 10.2956C21.9765 10.2956 23.3716 11.6908 23.3716 13.3185C23.3716 14.9462 21.9765 16.3414 20.3488 16.3414ZM29.8825 16.3414C28.2548 16.3414 26.8596 14.9462 26.8596 13.3185C26.8596 11.6908 28.2548 10.2956 29.8825 10.2956C31.5102 10.2956 32.9053 11.6908 32.9053 13.3185C32.9053 14.9462 31.5102 16.3414 29.8825 16.3414Z" fill="white"/>
</svg>
