<svg width="29" height="24" viewBox="0 0 29 24" fill="none" xmlns="http://www.w3.org/2000/svg">
<path d="M16.8041 0.443359H11.9752C5.53664 0.443359 0.247818 5.73225 0.247818 12.1708C0.247818 18.6093 5.53664 23.8981 11.9752 23.8981H16.8041C23.2427 23.8981 28.5315 18.6093 28.5315 12.1708C28.5315 5.73225 23.2427 0.443359 16.8041 0.443359ZM10.3655 14.9301C8.75588 14.9301 7.60618 13.7804 7.60618 12.1708C7.60618 10.5612 8.75588 9.41139 10.3655 9.41139C11.9752 9.41139 13.1249 10.5612 13.1249 12.1708C13.3549 13.7804 11.9752 14.9301 10.3655 14.9301ZM18.8736 14.9301C17.264 14.9301 16.1142 13.7804 16.1142 12.1708C16.1142 10.5612 17.264 9.41139 18.8736 9.41139C20.4833 9.41139 21.633 10.5612 21.633 12.1708C21.633 13.7804 20.4833 14.9301 18.8736 14.9301Z" fill="#D2EFFA"/>
</svg>
