<svg width="15" height="15" viewBox="0 0 15 15" fill="none" xmlns="http://www.w3.org/2000/svg">
<path fill-rule="evenodd" clip-rule="evenodd" d="M0.714287 4.18604C1.07143 3.48837 1.42857 2.7907 2.14286 2.44186C3.21429 1.04651 4.64286 0.348835 6.42857 -2.13087e-06C8.57143 -0.348839 10.7143 0.348835 12.5 1.74418C12.5 1.74418 12.5 1.74418 12.5 2.09302C12.1429 2.7907 11.4286 3.48837 10.7143 3.83721C10.7143 3.83721 10.7143 3.83721 10.3571 3.83721C8.92857 2.44186 6.07143 2.44186 4.28572 3.83721C3.92857 4.53488 3.57143 5.23256 3.21429 5.93023C2.5 5.23256 1.78572 4.88372 0.714287 4.18604Z" fill="#EB4335"/>
<path fill-rule="evenodd" clip-rule="evenodd" d="M3.21429 9.06976C3.57143 9.4186 3.92857 10.1163 4.28572 10.4651C5.35714 11.5116 6.78572 12.2093 8.21429 11.8605C8.92857 11.8605 9.64286 11.5116 10.3571 11.1628C10.3571 11.1628 10.3571 11.1628 10.7143 11.1628C11.4286 11.8605 12.1429 12.2093 12.8571 12.907C11.7857 13.9535 11.0714 14.3023 10 14.6512C7.5 15.3488 5 15 2.85714 13.2558C2.14286 12.5581 1.42857 11.8605 0.714287 10.8139C1.78572 10.1163 2.5 9.4186 3.21429 9.06976Z" fill="#34A853"/>
<path fill-rule="evenodd" clip-rule="evenodd" d="M12.8571 13.2558C12.1429 12.5581 11.4286 12.2093 10.7143 11.5116C10.7143 11.5116 10.7143 11.5116 10.3571 11.5116C10.7143 10.814 11.4286 10.4651 11.4286 10.1163C11.4286 9.76745 11.7857 9.76745 11.7857 9.41861V9.06977C10.7143 9.06977 9.28571 9.06977 8.21429 9.06977C7.85714 9.06977 7.85714 9.06977 7.85714 8.72093C7.85714 8.02326 7.85714 6.97675 7.85714 6.27907C7.85714 6.27907 7.85714 5.93024 8.21429 5.93024C10.3571 5.93024 12.8571 5.93024 15 5.93024H15.3571C15.7143 8.02326 15.3571 9.76745 14.2857 11.5116C13.5714 12.2093 13.2143 12.907 12.8571 13.2558Z" fill="#4285F4"/>
<path fill-rule="evenodd" clip-rule="evenodd" d="M3.21429 9.06976C2.5 9.4186 1.78571 10.1163 0.714286 10.8139C0.357143 10.1163 0 9.4186 0 8.37209C0 6.97674 0 5.58139 0.714286 4.18604C0.714286 4.18604 0.714286 4.18604 0.714286 3.8372C1.42857 4.53488 2.14286 4.88372 3.21429 5.58139C2.85714 6.97674 2.85714 8.02325 3.21429 9.06976Z" fill="#FBBC05"/>
</svg>
