<svg width="27" height="29" viewBox="0 0 27 29" fill="none" xmlns="http://www.w3.org/2000/svg">
<path d="M25.4284 10.7215L15.5407 1.06375C14.3909 -0.0859886 12.3214 -0.0859886 11.1717 1.06375L1.2839 10.7215C0.594054 11.4114 0.36412 12.1012 0.36412 13.021V24.9783C0.36412 26.8179 1.74379 28.1976 3.58338 28.1976H8.87219C9.56204 28.1976 10.0219 27.7377 10.0219 27.0479V20.6093C10.0219 18.9997 11.1717 17.3901 12.5514 17.1601C14.8509 16.4703 16.9204 18.3099 16.9204 20.6093V27.2777C16.9204 27.9676 17.3803 28.4275 18.0701 28.4275H23.3589C25.1985 28.4275 26.5782 27.0479 26.5782 25.2083V13.251C26.3482 12.1012 25.8883 11.1814 25.4284 10.7215Z" fill="#D2EFFA"/>
</svg>
