<svg width="17" height="17" viewBox="0 0 17 17" fill="none" xmlns="http://www.w3.org/2000/svg">
<path d="M15.9456 12.9827L13.6203 10.6574C14.3179 9.72731 14.5504 8.33213 14.5504 7.16949C14.5504 3.21649 11.5275 0.193604 7.57451 0.193604C3.62152 0.193604 0.598633 3.21649 0.598633 7.16949C0.598633 11.1225 3.62152 14.1454 7.57451 14.1454C8.96969 14.1454 10.1323 13.6803 11.0625 13.2152L13.3877 15.5405C13.6203 15.7731 14.0853 16.0056 14.5504 16.0056C15.0155 16.0056 15.4805 15.7731 15.713 15.5405C16.6432 14.8429 16.6432 13.6803 15.9456 12.9827ZM4.31912 7.40199C4.31912 5.54176 5.94682 3.91405 7.80706 3.91405C9.66729 3.91405 11.295 5.54176 11.295 7.40199C11.295 9.26223 9.66729 10.8899 7.80706 10.8899C5.71429 10.6574 4.31912 9.26223 4.31912 7.40199Z" fill="#71D4F5"/>
</svg>
