<svg width="33" height="33" viewBox="0 0 33 33" fill="none" xmlns="http://www.w3.org/2000/svg">
<path d="M9.85528 14.5059H4.97215C2.41433 14.5059 0.321564 12.4131 0.321564 9.85528V4.97215C0.321564 2.41433 2.41433 0.321564 4.97215 0.321564H9.85528C12.4131 0.321564 14.5059 2.41433 14.5059 4.97215V9.85528C14.5059 12.4131 12.4131 14.5059 9.85528 14.5059ZM32.6431 28.2251V23.342C32.6431 20.7841 30.5504 18.6914 27.9925 18.6914H23.1095C20.5516 18.6914 18.4589 20.7841 18.4589 23.342V28.2251C18.4589 30.7829 20.5516 32.8757 23.1095 32.8757H27.9925C30.7829 32.8757 32.6431 30.7829 32.6431 28.2251ZM23.342 14.5059H28.2251C30.7829 14.5059 32.8757 12.4131 32.8757 9.85528V4.97215C32.8757 2.41433 30.7829 0.321564 28.2251 0.321564H23.342C20.7841 0.321564 18.6914 2.41433 18.6914 4.97215V9.85528C18.6914 12.4131 20.7841 14.5059 23.342 14.5059ZM4.97215 32.8757H9.85528C12.4131 32.8757 14.5059 30.7829 14.5059 28.2251V23.342C14.5059 20.7841 12.4131 18.6914 9.85528 18.6914H4.97215C2.41433 18.6914 0.321564 20.7841 0.321564 23.342V28.2251C0.321564 30.7829 2.41433 32.8757 4.97215 32.8757Z" fill="#D2EFFA"/>
</svg>
